# xmcd
#
# Track frame offsets:
#	150
#	20019
#	39064
#	59553
#	77438
#	97799
#	120754
#	140117
#	160869
#	182323
#	203660
#	221934
#
# Disc length: 3129 seconds
#
# Revision: 6
# Processed by: cddbd v1.5.2PL0 Copyright (c) Steve Scherf et al.
# Submitted via: EasyCDDAExtractor 15.3.0.1
#
DISCID=930c370c
DTITLE=Jerry Rivera - Ay Mi Vida
DYEAR=2005
DGENRE=Latin
TTITLE0=Ay Mi Vida
TTITLE1=Alto Mas
TTITLE2=No Te Rindas
TTITLE3=Right On Time
TTITLE4=Sobre Tu Piel
TTITLE5=Rios De Dolor (Dueto Con Saned)
TTITLE6=Boricua Siempre Sere (Dueto Con ''La Sister'')
TTITLE7=Rios De Dolor (Dueto Con Saned) (Version Salsa)
TTITLE8=Ay Mi Vida (Version Salsa)
TTITLE9=Sobre Tu Piel (Version Salsa)
TTITLE10=Como Duele
TTITLE11=Miento
EXTD=
EXTT0=
EXTT1=
EXTT2=
EXTT3=
EXTT4=
EXTT5=
EXTT6=
EXTT7=
EXTT8=
EXTT9=
EXTT10=
EXTT11=
PLAYORDER=
